<?xml version="1.0" standalone="no"?>
<!DOCTYPE svg PUBLIC "-//W3C//DTD SVG 20010904//EN"
 "http://www.w3.org/TR/2001/REC-SVG-20010904/DTD/svg10.dtd">
<svg version="1.0" xmlns="http://www.w3.org/2000/svg"
 width="512.000000pt" height="512.000000pt" viewBox="0 0 512.000000 512.000000"
 preserveAspectRatio="xMidYMid meet">

<g transform="translate(0.000000,512.000000) scale(0.100000,-0.100000)"
fill="#000000" stroke="none">
<path d="M739 4469 c-15 -15 -19 -28 -14 -47 12 -52 15 -52 362 -52 l323 0 0
-514 0 -515 -22 -15 c-38 -27 -157 -168 -220 -261 -118 -175 -198 -368 -240
-578 -32 -160 -32 -424 0 -584 127 -636 610 -1118 1245 -1245 160 -32 424 -32
584 0 974 194 1526 1215 1152 2131 -72 177 -199 369 -328 496 l-61 59 0 513 0
513 285 0 285 0 0 -259 0 -259 -34 -12 c-49 -16 -110 -73 -135 -125 -19 -41
-21 -61 -21 -269 0 -196 2 -225 17 -237 12 -11 66 -15 224 -17 l209 -3 25 25
c25 25 25 25 25 219 0 227 -10 276 -70 341 -22 24 -58 51 -80 61 l-40 18 0
289 c0 285 -3 320 -34 340 -6 4 -777 8 -1713 8 l-1703 0 -21 -21z m2661 -597
l0 -498 -108 -17 c-243 -39 -475 -112 -688 -218 l-141 -69 -124 63 c-202 103
-487 193 -721 227 l-88 13 0 499 0 498 935 0 935 0 0 -498z m818 -152 c53 -33
62 -68 62 -250 l0 -161 -132 3 -133 3 -3 150 c-3 173 8 220 61 254 41 27 102
27 145 1z m-2523 -495 c263 -52 550 -159 706 -262 50 -33 74 -32 135 5 81 50
272 138 373 171 201 67 506 130 540 111 45 -24 208 -230 271 -342 l32 -58
-187 0 c-142 0 -192 -3 -213 -14 -33 -18 -345 -332 -361 -363 -8 -16 -8 -29
-2 -40 5 -10 73 -81 150 -158 l141 -140 140 -3 140 -4 0 -116 0 -116 -95 -97
-95 -96 0 -315 c0 -363 14 -317 -125 -408 -206 -134 -442 -212 -685 -227 l-95
-5 75 76 75 76 3 151 3 150 80 121 c43 67 79 127 79 134 0 27 -94 280 -108
292 -11 8 -66 12 -194 12 l-179 0 -112 -102 c-62 -56 -129 -117 -150 -137
l-37 -35 -110 109 -110 110 0 234 c0 204 -2 237 -17 253 -14 16 -33 18 -165
18 l-148 0 0 105 0 105 -110 260 c-98 229 -109 262 -99 282 22 42 115 162 179
231 l63 68 46 -6 c25 -4 100 -17 166 -30z m-447 -632 l82 -191 0 -136 c0 -183
-7 -176 185 -176 l145 0 0 -217 0 -217 152 -153 c130 -131 157 -153 183 -153
25 0 58 26 190 145 l160 145 126 0 125 0 28 -88 29 -88 -77 -115 -76 -114 0
-145 0 -145 -95 -95 -95 -95 -97 17 c-200 35 -417 125 -586 245 -104 74 -265
235 -339 339 -247 347 -329 790 -222 1203 29 109 83 246 94 234 4 -4 44 -94
88 -200z m2591 44 c53 -165 66 -254 65 -447 -1 -140 -5 -195 -22 -277 -53
-248 -155 -457 -321 -657 l-66 -80 -3 239 -2 238 95 97 95 97 0 179 c0 241 15
224 -193 224 l-162 0 -100 100 -100 100 140 140 140 140 202 0 202 0 30 -93z"/>
<path d="M1936 2528 c-13 -18 -16 -54 -16 -180 0 -86 4 -167 9 -181 7 -19 38
-35 160 -81 98 -38 158 -56 173 -53 13 4 72 55 131 115 87 88 107 115 107 138
0 24 -21 50 -118 147 l-117 117 -157 0 c-151 0 -157 -1 -172 -22z m347 -166
l77 -78 -65 -64 -64 -64 -96 38 -95 38 0 104 0 104 83 0 82 0 78 -78z"/>
</g>
</svg>
