<?xml version="1.0" standalone="no"?>
<!DOCTYPE svg PUBLIC "-//W3C//DTD SVG 20010904//EN"
 "http://www.w3.org/TR/2001/REC-SVG-20010904/DTD/svg10.dtd">
<svg version="1.0" xmlns="http://www.w3.org/2000/svg"
 width="1280.000000pt" height="399.000000pt" viewBox="0 0 1280.000000 399.000000"
 preserveAspectRatio="xMidYMid meet">
<metadata>
Created by potrace 1.16, written by Peter Selinger 2001-2019
</metadata>
<g transform="translate(0.000000,399.000000) scale(0.100000,-0.100000)"
fill="#000000" stroke="none">
<path d="M0 2873 c0 -614 3 -1114 6 -1110 3 3 17 2 30 -4 33 -12 43 14 21 53
-22 38 -21 71 1 92 18 15 20 15 37 -4 24 -26 31 -19 39 39 7 55 25 76 59 67
14 -3 34 2 52 14 16 10 32 17 37 14 15 -10 8 -61 -12 -87 -35 -45 -25 -56 33
-32 13 5 17 2 17 -15 0 -35 -17 -58 -66 -86 -25 -14 -43 -31 -41 -38 4 -11 12
-11 60 0 20 5 27 3 27 -8 0 -17 -45 -79 -65 -91 -10 -5 -13 -17 -9 -36 4 -16
1 -32 -5 -35 -15 -10 -14 -64 4 -122 19 -63 19 -71 -3 -51 -10 9 -24 39 -31
67 -10 38 -22 57 -52 81 -21 17 -39 39 -39 50 0 11 -16 29 -40 44 -23 14 -45
36 -50 48 -5 13 -9 -331 -9 -850 l-1 -873 6400 0 6400 0 0 1995 0 1995 -5357
0 c-4873 0 -5355 -2 -5326 -16 81 -40 84 -200 4 -261 -20 -15 -76 -17 -103 -2
-26 14 -57 84 -58 128 0 52 37 121 74 137 26 11 -125 13 -1001 14 l-1033 0 0
-1117z m1859 1082 c78 -40 80 -199 4 -239 -33 -17 -167 -34 -144 -18 20 14 7
229 -16 254 -15 17 -12 18 56 18 43 0 83 -6 100 -15z m506 -8 c17 -2 20 -8 16
-47 l-3 -45 -15 37 c-16 41 -46 57 -68 38 -24 -20 -17 -45 25 -96 34 -42 40
-55 38 -88 -2 -29 -10 -44 -31 -60 -25 -18 -31 -19 -60 -7 -17 7 -38 13 -44
14 -15 0 -18 63 -3 72 6 3 10 -2 10 -12 0 -57 72 -86 90 -37 11 29 2 51 -41
102 -36 40 -39 92 -8 123 16 16 28 19 47 14 15 -4 36 -7 47 -8z m-876 -35 c-9
-14 -3 -43 26 -136 20 -65 35 -119 33 -121 -2 -2 -46 32 -98 75 -52 44 -98 79
-102 80 -12 0 51 -174 67 -186 12 -9 8 -13 -20 -21 -20 -6 -35 -7 -35 -2 0 5
5 9 10 9 16 0 12 26 -22 132 -23 75 -36 102 -52 108 -19 7 -19 8 8 15 33 9 30
11 130 -73 42 -35 76 -59 76 -55 0 27 -45 140 -61 154 -17 16 -17 17 14 27 18
5 33 10 35 11 1 1 -3 -7 -9 -17z m1174 -51 c25 -10 25 -10 20 -118 l-4 -108
74 78 c71 73 76 77 100 66 25 -11 25 -12 8 -28 -10 -9 -37 -60 -60 -114 -36
-84 -41 -100 -29 -114 11 -15 11 -16 -7 -9 -11 4 -33 13 -48 18 -28 10 -28 11
-7 22 20 10 97 163 87 173 -2 2 -39 -34 -82 -79 l-78 -83 6 114 c3 63 2 110
-2 105 -4 -5 -23 -44 -41 -86 -29 -68 -31 -79 -19 -94 8 -10 9 -15 3 -11 -6 3
-24 11 -40 18 -27 10 -28 12 -8 19 25 10 108 193 101 221 -6 22 -6 22 26 10z
m-1439 -45 c-4 -16 6 -46 29 -92 60 -120 58 -162 -9 -190 -56 -23 -81 -5 -136
101 -32 63 -53 91 -68 95 -19 4 -15 9 26 28 30 15 43 18 36 9 -10 -12 -5 -30
28 -98 22 -46 48 -91 57 -101 33 -37 93 -12 93 38 0 13 -18 62 -40 109 -33 68
-45 85 -63 85 -18 1 -16 4 13 20 19 11 36 19 38 20 1 0 0 -11 -4 -24z m1786
-131 c38 -25 70 -48 70 -52 0 -5 -7 -17 -15 -27 -14 -19 -15 -19 -15 6 0 25
-43 68 -67 68 -14 0 -55 -71 -49 -86 8 -21 36 -29 57 -15 11 6 19 9 19 6 0 -5
-51 -85 -54 -85 -1 0 -2 12 -1 26 0 16 -8 32 -21 40 -20 14 -23 12 -53 -33
l-31 -48 27 -22 c31 -25 63 -29 96 -12 18 10 17 6 -6 -19 l-29 -30 -74 46
c-57 36 -69 48 -56 53 27 10 135 186 129 209 -3 11 -3 20 -1 20 2 0 35 -20 74
-45z m-2164 -116 c23 -26 25 -29 7 -20 -47 24 -101 4 -87 -33 10 -26 38 -36
97 -36 76 0 109 -26 105 -84 -3 -35 -8 -43 -35 -56 -18 -8 -33 -22 -33 -29 0
-9 -13 -2 -35 19 -19 18 -33 35 -31 37 1 2 17 -4 35 -13 29 -15 34 -14 56 0
54 35 14 86 -67 86 -64 0 -93 13 -108 50 -16 39 -1 77 35 86 14 3 25 10 25 15
0 14 4 11 36 -22z m2369 -33 c6 -5 1 -5 -12 -1 -13 3 -23 3 -23 -2 0 -4 -4
-25 -9 -46 l-9 -39 36 7 c41 8 65 23 56 36 -12 20 14 7 37 -18 13 -14 18 -23
11 -19 -20 12 -141 -24 -146 -43 -16 -56 -26 -134 -21 -152 6 -19 2 -17 -34
11 -23 18 -41 34 -41 36 0 1 7 1 17 0 12 -1 20 13 29 49 7 27 12 51 10 52 -2
2 -25 -5 -52 -15 -37 -14 -48 -23 -46 -36 3 -17 0 -16 -27 5 -28 22 -44 48
-20 34 13 -9 136 24 148 39 13 18 32 131 25 152 -5 14 1 12 27 -11 19 -16 39
-34 44 -39z m-1034 -52 c129 -21 281 -74 406 -139 79 -41 116 -55 148 -55 51
0 60 -8 39 -31 -28 -31 -109 -52 -170 -44 -49 6 -54 9 -54 32 l0 25 32 -27
c21 -18 38 -25 52 -21 12 3 24 6 29 6 18 0 4 41 -21 58 -49 36 -205 109 -287
135 -171 55 -375 80 -439 53 -32 -13 -37 -19 -34 -43 3 -25 16 -35 113 -83 81
-41 116 -64 132 -89 48 -72 100 -291 86 -363 -9 -51 -38 -102 -78 -136 -20
-18 -40 -32 -45 -32 -26 0 -17 26 24 70 54 58 66 85 66 147 0 63 -29 200 -51
244 -25 51 -89 104 -172 144 -40 20 -80 45 -89 56 -24 29 -23 64 4 89 19 17
35 20 118 20 53 0 139 -7 191 -16z m-1461 -74 c110 -56 122 -216 17 -235 -43
-8 -84 8 -130 53 -49 47 -64 100 -42 146 27 57 86 71 155 36z m2792 -182 c15
-18 34 -41 42 -50 14 -15 12 -20 -16 -43 -31 -26 -50 -27 -29 -1 7 8 11 29 9
48 -7 72 -98 74 -171 3 -65 -63 -63 -124 6 -156 l42 -19 -35 5 c-45 6 -90 54
-90 96 0 59 49 120 117 145 53 19 93 10 125 -28z m-2952 -23 c16 -8 40 -30 54
-48 39 -50 35 -100 -11 -170 -39 -58 -55 -71 -47 -39 3 12 -20 35 -86 82 -50
36 -99 65 -110 64 -25 -1 -13 22 44 81 37 39 48 45 85 45 23 0 55 -7 71 -15z
m2317 -51 c155 -119 303 -302 404 -501 33 -65 75 -133 92 -152 l32 -33 -70 4
c-117 8 -167 44 -265 193 -97 147 -219 287 -345 396 -99 85 -113 111 -22 43
128 -97 280 -265 413 -456 34 -49 107 -112 142 -122 39 -12 37 19 -7 110 -86
179 -224 363 -365 486 -106 93 -101 88 -91 88 5 0 42 -25 82 -56z m-85 -32
c148 -119 322 -321 408 -476 57 -101 9 -61 -74 63 -97 143 -211 277 -318 372
-46 40 -90 79 -98 86 -9 8 -10 13 -3 13 7 0 45 -26 85 -58z m-1847 20 c0 -10
-12 -36 -25 -58 -34 -54 -40 -156 -11 -201 17 -27 27 -32 66 -35 62 -4 57 -22
-8 -26 -41 -2 -57 1 -69 15 -15 17 -58 174 -58 210 0 16 86 113 100 113 4 0 6
-8 5 -18z m1884 -243 c82 -82 139 -154 195 -246 39 -64 43 -95 13 -101 -43 -8
-70 13 -185 146 -66 75 -142 158 -169 184 -51 47 -71 78 -51 78 18 0 196 -180
275 -277 41 -51 80 -93 88 -93 54 0 -47 143 -232 329 -68 68 -123 128 -123
133 0 15 110 -75 189 -153z m789 69 c-23 -29 -64 -77 -90 -107 -26 -31 -48
-63 -48 -71 0 -8 -9 -2 -20 15 -21 32 -25 46 -12 44 20 -3 31 3 46 26 15 22
14 26 -5 60 -12 19 -25 35 -29 35 -24 0 -59 -21 -62 -37 -3 -14 -8 -11 -21 14
-12 22 -13 31 -5 28 7 -3 65 6 128 19 172 36 170 36 118 -26z m-2377 16 c38
-12 73 -15 118 -10 68 6 131 -13 131 -40 0 -29 -114 -94 -132 -76 -5 5 9 16
32 25 29 11 40 21 40 36 0 17 -6 21 -35 21 -19 0 -49 -9 -67 -20 -18 -11 -51
-20 -72 -20 -75 0 -110 -67 -65 -124 l20 -26 -40 0 c-28 0 -48 8 -71 27 -46
39 -54 66 -31 112 23 45 38 58 71 63 14 1 26 10 26 18 4 37 0 36 75 14z m-849
-54 c73 -12 138 -18 145 -16 17 7 16 -2 -7 -44 -11 -21 -19 -28 -20 -18 0 20
-5 24 -46 32 -28 6 -32 4 -49 -34 -18 -40 -18 -40 5 -65 13 -14 30 -23 37 -21
17 7 16 -3 -2 -34 -12 -21 -14 -22 -15 -6 0 10 -33 53 -73 95 -97 102 -122
131 -113 131 4 0 66 -9 138 -20z m2334 -154 c95 -95 157 -184 152 -217 -4 -28
-43 -45 -84 -35 -32 8 -244 221 -244 246 0 8 53 -38 118 -103 73 -72 125 -117
138 -117 23 0 44 18 44 37 0 18 -143 186 -201 236 -27 23 -49 46 -49 50 0 18
50 -21 126 -97z m1022 68 c10 -19 3 -34 -54 -114 -36 -51 -64 -94 -62 -95 2
-2 36 10 77 27 49 21 75 38 79 51 4 16 7 14 18 -13 8 -18 14 -33 14 -35 0 -1
-10 0 -23 2 -13 3 -71 -15 -135 -40 -62 -25 -112 -43 -112 -41 0 3 32 50 71
105 39 55 69 102 66 105 -6 6 -120 -40 -155 -62 -12 -8 -20 -20 -16 -26 4 -6
3 -8 -3 -5 -6 4 -16 21 -22 38 -9 27 -9 30 4 19 20 -17 225 64 233 92 5 21 5
21 20 -8z m-2496 -31 c47 -51 58 -76 58 -128 l0 -50 -134 -130 c-150 -146
-171 -176 -163 -244 5 -43 4 -44 -9 -21 -19 36 -17 105 6 149 11 22 71 88 135
147 88 84 116 117 121 142 8 41 -9 83 -47 116 -29 26 -31 46 -5 46 7 0 24 -12
38 -27z m-1012 -8 l25 -14 -31 -1 c-22 0 -34 -6 -42 -24 -10 -23 -8 -24 100
-65 86 -32 113 -39 124 -30 18 15 18 1 -1 -45 -16 -38 -28 -48 -23 -19 2 13
-22 27 -106 60 -60 23 -112 40 -117 37 -14 -9 -10 -51 6 -64 9 -7 14 -15 12
-17 -6 -6 -57 19 -57 28 0 23 64 169 73 169 7 -1 23 -7 37 -15z m984 -126
c-10 -11 -55 -45 -101 -76 -127 -85 -180 -176 -171 -293 6 -78 39 -129 109
-164 47 -23 65 -26 159 -26 94 0 109 -2 125 -20 15 -17 16 -24 5 -50 -15 -37
-29 -39 -22 -4 3 16 -1 30 -9 35 -8 5 -63 9 -124 9 -129 1 -170 15 -226 77
-118 130 -51 356 133 455 32 17 75 45 95 63 39 34 59 29 27 -6z m215 -126
c-23 -46 -24 -113 -3 -179 37 -110 73 -97 44 16 -23 84 -19 139 11 166 26 23
33 13 14 -22 -21 -42 -19 -119 7 -193 l22 -63 -23 -19 c-36 -29 -61 -25 -61
10 0 16 -13 61 -30 99 -16 39 -30 86 -30 104 1 42 35 118 53 118 12 0 11 -7
-4 -37z m-1252 3 c4 -3 -7 -6 -24 -6 -59 0 -87 -72 -31 -78 18 -2 44 9 78 32
29 20 64 36 79 36 60 0 94 -56 66 -110 -9 -17 -13 -35 -10 -39 4 -8 -74 -3
-84 5 -2 2 10 6 25 10 55 13 80 54 52 82 -20 20 -62 13 -104 -17 -50 -37 -75
-44 -108 -31 -37 14 -53 52 -36 88 7 15 13 32 12 38 -2 12 72 3 85 -10z m3602
18 c48 -10 81 -49 81 -96 0 -32 -7 -47 -33 -73 -62 -62 -164 -69 -219 -15 -56
57 -23 143 67 175 46 16 60 17 104 9z m-2226 -71 c-18 -60 -10 -129 22 -193
26 -52 49 -67 72 -48 11 9 13 25 7 72 -12 96 -3 186 19 186 10 0 11 -13 3 -59
-7 -46 -6 -73 8 -128 18 -78 14 -100 -20 -114 -51 -19 -92 21 -127 125 -21 61
-22 135 -2 182 21 52 36 33 18 -23z m310 -75 c4 -112 3 -136 -10 -150 -22 -24
-85 -24 -106 0 -33 36 -44 175 -20 238 12 32 18 9 18 -74 0 -100 19 -146 58
-140 21 3 22 9 28 128 7 138 6 130 18 130 4 0 11 -60 14 -132z m-1079 81 c58
-46 70 -108 36 -197 -36 -93 -24 -126 67 -183 40 -25 68 -70 84 -134 13 -53
34 -85 56 -85 7 0 13 -4 13 -10 0 -18 -30 -10 -54 13 -14 14 -27 43 -31 68
-11 68 -31 96 -100 146 -85 61 -95 85 -64 160 15 36 24 78 24 110 0 47 -4 56
-40 93 -41 42 -36 54 9 19z m2341 -60 c25 -88 34 -106 91 -182 55 -74 63 -104
70 -257 6 -156 11 -190 28 -190 19 0 26 23 19 63 -3 19 3 74 12 122 22 109 16
218 -18 333 -21 72 -22 83 -8 80 21 -4 58 -116 73 -217 9 -68 8 -91 -11 -185
-15 -77 -20 -124 -15 -169 11 -113 -30 -344 -63 -355 -10 -3 -11 19 -6 91 4
73 1 121 -15 213 -12 65 -26 174 -32 242 -5 68 -15 133 -22 145 -6 12 -33 48
-59 79 -26 31 -50 65 -53 75 -2 10 -14 51 -26 91 -12 41 -19 81 -16 89 12 29
30 5 51 -68z m-177 -11 c21 -46 57 -106 79 -134 61 -76 73 -106 97 -238 17
-96 25 -121 39 -124 22 -4 23 45 1 158 -8 45 -13 84 -10 87 11 11 35 -57 47
-132 14 -86 19 -438 7 -451 -15 -14 -21 6 -29 98 -5 58 -19 127 -38 183 -16
50 -39 137 -51 195 -28 135 -35 154 -87 212 -24 27 -54 71 -68 98 -23 46 -44
130 -32 130 3 0 24 -37 45 -82z m-2204 30 c22 -32 20 -111 -4 -158 -27 -53
-26 -117 3 -157 12 -18 46 -50 75 -73 58 -45 82 -88 82 -147 0 -80 68 -139
145 -126 26 4 40 2 45 -8 20 -32 -73 -40 -129 -11 -49 24 -69 57 -84 137 -17
90 -27 107 -82 145 -98 68 -119 130 -76 230 29 67 33 130 9 157 -10 11 -18 23
-18 26 0 15 20 6 34 -15z m2032 -55 c16 -31 57 -86 92 -120 70 -71 74 -79 97
-189 9 -43 25 -99 36 -124 18 -40 22 -43 33 -28 16 21 6 104 -23 198 -22 70
-21 88 2 43 40 -77 67 -253 67 -441 0 -112 -13 -114 -31 -2 -6 43 -28 112 -51
165 -22 49 -49 130 -60 180 -22 104 -43 141 -105 192 -49 40 -103 124 -103
161 0 37 16 25 46 -35z m-189 -36 c11 -25 76 -84 153 -140 40 -29 58 -50 96
-113 9 -15 15 -16 25 -7 10 10 8 23 -9 68 -12 30 -19 55 -16 55 12 0 63 -129
73 -185 15 -78 14 -168 0 -163 -6 2 -29 52 -49 111 -48 133 -82 182 -156 227
-78 47 -144 114 -144 145 0 31 14 32 27 2z m-2495 -24 c-24 -5 -42 -38 -42
-78 0 -20 6 -25 44 -30 25 -4 49 -4 55 0 20 11 12 51 -11 63 -22 10 -22 11 7
10 34 0 90 -15 63 -17 -10 -1 -22 -10 -28 -20 -20 -39 -13 -48 46 -55 31 -4
58 -5 60 -4 1 2 5 19 9 39 5 29 2 41 -19 66 l-26 31 35 -11 c26 -8 35 -16 34
-31 -1 -32 -26 -173 -28 -155 -1 22 -12 26 -131 40 -71 9 -107 9 -119 2 -15
-9 -15 -3 -7 73 l9 84 36 -1 c24 -1 29 -3 13 -6z m2453 -103 c33 -15 73 -41
87 -59 15 -17 31 -31 37 -31 15 0 14 23 -1 38 -9 9 -9 12 -1 12 18 0 41 -38
73 -122 51 -131 39 -127 -75 22 -71 92 -113 127 -175 145 -31 9 -80 54 -80 73
0 9 14 2 37 -18 20 -18 64 -45 98 -60z m1342 47 c11 -12 22 -92 13 -100 -3 -3
-23 -7 -45 -11 l-40 -6 27 15 c51 29 59 77 15 91 -21 7 -22 7 -100 -91 -22
-27 -36 -35 -61 -35 -49 0 -68 20 -76 78 -6 49 -5 51 19 57 14 3 35 9 46 12
13 4 7 -6 -18 -29 -41 -39 -44 -49 -21 -72 32 -33 66 -17 108 52 15 24 37 47
49 52 25 11 67 4 84 -13z m-131 -367 c-19 -48 -30 -160 -18 -179 17 -24 32 -1
32 47 0 26 9 79 20 117 11 39 18 81 15 95 -5 20 -4 22 6 13 18 -18 23 -105 9
-177 -8 -44 -27 -90 -57 -141 -29 -48 -47 -92 -51 -121 -3 -28 -10 -44 -18
-44 -16 0 -17 9 -3 70 5 25 13 110 18 190 6 122 11 153 31 195 l24 50 4 -39
c2 -21 -4 -55 -12 -76z m-966 -134 c91 -66 199 -144 240 -173 106 -75 103 -72
89 -90 -36 -43 -139 -60 -191 -32 -49 26 -478 383 -478 397 0 9 15 3 43 -20
253 -205 438 -349 461 -358 15 -5 40 -10 56 -10 33 0 80 34 65 48 -5 5 -146
109 -312 232 -167 122 -303 226 -303 232 0 11 83 -46 330 -226z m-1285 193
c23 -43 12 -79 -33 -109 -20 -13 -52 -37 -70 -52 -18 -15 -39 -28 -46 -28 -23
0 -107 71 -104 87 2 9 16 25 31 37 30 22 59 15 65 -16 2 -12 -4 -14 -23 -11
-29 6 -33 -11 -8 -39 23 -26 34 -23 105 25 65 45 67 50 52 110 -9 37 11 35 31
-4z m-830 -45 c29 -31 35 -103 10 -124 -32 -26 -107 20 -121 74 -16 67 63 102
111 50z m1456 -38 c29 -63 55 -177 45 -203 -11 -27 -45 -12 -94 42 -72 78
-152 215 -112 190 5 -3 39 -51 75 -106 46 -69 72 -99 85 -99 30 0 25 41 -15
130 -19 43 -35 85 -35 94 0 34 22 13 51 -48z m-1320 -57 c4 -13 35 -53 69 -88
55 -57 64 -63 81 -53 27 17 35 -7 16 -45 -8 -16 -12 -42 -10 -60 3 -21 1 -33
-6 -33 -6 0 -11 7 -11 15 0 46 -107 201 -144 211 -51 12 -156 -68 -156 -120 0
-55 99 -150 188 -181 86 -31 91 -36 30 -31 -41 3 -60 1 -69 -10 -19 -23 -40
-17 -33 10 4 19 -1 27 -31 45 -20 11 -47 21 -61 21 -24 0 -32 14 -14 25 12 7
-39 82 -63 90 -9 4 -22 15 -28 27 -9 17 -8 19 9 14 15 -5 25 1 40 26 28 46 70
83 117 105 27 12 41 26 43 41 4 29 24 24 33 -9z m301 -259 c11 0 16 -4 13 -10
-3 -5 -21 -10 -40 -10 -31 0 -36 -4 -64 -62 -43 -85 -41 -102 17 -139 73 -47
142 -63 239 -56 76 6 101 -1 72 -19 -7 -4 -50 -10 -98 -15 -47 -4 -98 -10
-113 -14 -21 -6 -26 -4 -25 12 3 30 -95 74 -147 67 -34 -5 -39 -4 -28 7 6 7
12 27 12 44 0 51 27 125 59 166 17 21 31 45 31 54 0 14 4 13 26 -4 15 -12 35
-21 46 -21z m161 -2 c27 -32 22 -85 -12 -119 -36 -36 -54 -36 -80 -3 -24 30
-28 99 -8 125 26 33 69 32 100 -3z m312 -62 c21 -31 52 -51 93 -61 29 -6 34
-4 39 14 8 33 31 25 39 -14 4 -23 18 -44 37 -60 47 -36 28 -38 -28 -3 -64 40
-190 81 -225 73 -41 -9 -65 -42 -91 -122 l-23 -73 23 -24 c27 -28 153 -72 247
-85 67 -10 145 -2 184 19 24 13 30 13 30 0 0 -14 -96 -110 -110 -110 -6 0 -9
4 -5 9 8 14 -35 41 -65 41 -14 -1 -36 -7 -50 -15 -35 -20 -49 -19 -43 5 10 39
-100 66 -141 35 -11 -8 -26 -15 -34 -15 -12 0 -12 3 -1 16 11 14 10 19 -11 35
-71 53 -72 62 -33 191 23 76 25 93 14 110 -12 19 -11 20 11 13 55 -18 108 -6
108 25 0 27 16 25 35 -4z m2121 -102 c-23 -132 -68 -234 -139 -313 -34 -38
-75 -90 -91 -116 -27 -44 -50 -64 -62 -53 -3 3 9 27 25 54 17 27 38 77 46 112
22 86 75 214 120 290 66 113 53 57 -28 -125 -55 -122 -65 -153 -45 -153 19 0
72 101 104 200 31 99 72 195 79 188 3 -3 -1 -40 -9 -84z m-1286 26 c19 -17 44
-30 56 -30 33 0 74 -18 80 -35 11 -28 -6 -63 -40 -84 -44 -27 -68 -26 -104 4
-17 14 -33 25 -37 25 -4 0 -13 7 -20 16 -10 14 -14 15 -34 3 -21 -13 -24 -12
-38 8 l-15 22 -51 -41 c-29 -22 -58 -49 -65 -59 -18 -26 -44 -24 -71 5 -37 39
-25 66 42 101 83 42 69 80 -20 56 -28 -8 -42 -19 -53 -43 -28 -62 -73 -32 -56
37 6 23 9 24 116 24 61 0 110 -4 110 -9 0 -4 -22 -28 -50 -53 -48 -43 -62 -67
-40 -67 6 0 35 20 66 45 30 25 65 45 78 45 13 0 26 7 30 15 10 27 34 16 84
-41 40 -46 53 -55 70 -49 36 11 25 39 -30 75 -29 19 -54 41 -56 48 -6 20 10
13 48 -18z m1099 -17 c-10 -21 -19 -44 -19 -53 0 -8 -16 -46 -35 -84 -32 -64
-36 -86 -16 -86 8 0 57 103 85 181 19 54 41 87 51 77 10 -9 -28 -104 -76 -193
-20 -38 -40 -91 -44 -118 -9 -60 -22 -68 -40 -23 -33 77 -13 168 58 274 47 69
65 82 36 25z m-3185 -101 c-5 -43 -4 -54 6 -50 14 4 21 15 39 61 11 29 38 36
59 15 15 -15 16 -85 1 -127 -15 -44 0 -59 35 -36 26 17 26 17 26 -9 0 -15 -6
-39 -14 -54 -41 -80 -27 -156 41 -220 26 -23 44 -45 40 -48 -10 -11 -70 28
-122 80 -38 39 -64 55 -91 61 -45 8 -85 27 -103 49 -12 14 -9 16 18 16 40 0
42 27 4 36 -59 12 -114 36 -123 54 -16 29 -12 40 14 40 42 0 38 17 -12 42 -59
30 -72 68 -23 68 31 0 43 21 21 35 -17 10 -11 25 10 25 10 0 31 6 46 12 24 11
28 10 42 -10 19 -29 28 -28 47 9 14 25 19 28 31 18 12 -10 13 -25 8 -67z
m3437 32 c-11 -14 -30 -51 -41 -82 -12 -31 -35 -81 -51 -109 -21 -39 -25 -53
-15 -53 22 0 53 45 72 103 20 62 60 143 74 152 13 8 14 13 -24 -91 -58 -162
-94 -203 -201 -230 -26 -7 -26 -5 19 50 49 61 86 125 86 151 0 23 28 76 58
108 33 34 50 36 23 1z m-922 -23 c6 -10 24 -24 41 -29 16 -6 30 -18 30 -26 0
-20 -14 -20 -45 0 -21 14 -30 14 -55 4 -30 -12 -93 -75 -125 -124 -10 -15 -31
-34 -46 -42 -36 -18 -99 -19 -99 -1 0 9 9 12 28 10 60 -8 132 78 132 157 0 32
1 33 19 16 26 -23 57 -13 76 25 18 34 30 37 44 10z m226 -36 c44 -44 29 -93
-36 -119 -106 -43 -158 39 -73 114 42 36 77 38 109 5z m-545 -85 c0 -46 -20
-78 -73 -116 -40 -29 -48 -40 -44 -60 5 -28 2 -29 -37 -9 -26 14 -41 14 -105
4 -42 -7 -84 -16 -93 -21 -22 -11 -43 -52 -52 -102 l-7 -38 -92 7 c-51 4 -96
9 -101 12 -14 9 0 193 19 246 28 79 41 44 21 -57 -10 -46 -16 -102 -14 -123 3
-38 4 -38 56 -46 63 -10 72 -5 95 61 25 68 44 82 124 93 84 10 115 19 178 52
49 24 64 42 85 100 13 37 40 36 40 -3z m518 -128 c25 -4 20 -22 -6 -22 -9 0
-43 -12 -75 -27 -54 -26 -57 -30 -51 -56 6 -27 4 -28 -17 -22 -13 4 -29 11
-35 16 -6 5 -65 10 -132 12 -113 4 -122 3 -122 -14 0 -30 -20 -22 -35 15 -11
27 -23 36 -60 46 -25 7 -45 17 -45 21 0 15 46 10 133 -12 63 -17 100 -20 162
-17 97 7 194 41 211 77 20 39 38 45 44 13 4 -18 12 -28 28 -30z m2017 34 c38
-16 41 -23 24 -60 -11 -24 -13 -24 -41 -10 -44 23 -137 15 -155 -13 -13 -19
-12 -24 5 -41 10 -10 52 -27 93 -37 90 -22 129 -55 129 -109 0 -51 -17 -81
-62 -106 -46 -26 -140 -31 -204 -10 -58 19 -64 26 -52 61 11 33 18 35 59 13
17 -8 55 -16 86 -17 46 -2 58 1 73 21 33 40 17 54 -103 87 -83 24 -117 56
-117 110 0 49 27 90 74 111 41 18 148 18 191 0z m515 -21 l0 -34 -107 -3 -108
-3 -3 -47 -3 -48 95 0 96 0 0 -35 0 -35 -95 0 -95 0 0 -50 0 -50 115 0 115 0
0 -35 0 -35 -155 0 -155 0 0 205 0 205 150 0 150 0 0 -35z m457 20 c21 -9 45
-23 55 -32 18 -16 17 -18 -8 -44 l-27 -28 -29 22 c-22 16 -44 22 -85 22 -50 0
-57 -3 -88 -37 -45 -48 -53 -93 -27 -150 32 -73 121 -100 190 -58 34 21 55 18
80 -13 9 -11 8 -17 -6 -29 -64 -57 -179 -67 -259 -23 -148 80 -141 297 12 366
50 23 142 24 192 4z m497 -10 c56 -27 78 -67 73 -134 -3 -48 -9 -59 -42 -89
l-37 -34 41 -59 c22 -32 41 -60 41 -64 0 -3 -19 -5 -43 -5 -41 0 -45 3 -85 60
-41 58 -44 60 -87 60 l-45 0 0 -60 0 -60 -45 0 -45 0 0 206 0 206 118 -4 c88
-3 126 -8 156 -23z m546 -10 l0 -35 -110 0 -110 0 0 -50 0 -50 95 0 95 0 0
-35 0 -35 -95 0 -95 0 0 -50 0 -50 115 0 115 0 0 -35 0 -35 -160 0 -160 0 0
205 0 205 155 0 155 0 0 -35z m470 0 l0 -34 -62 -3 -63 -3 -3 -167 -2 -168
-45 0 -45 0 0 170 0 170 -65 0 -65 0 0 35 0 35 175 0 175 0 0 -35z m350 8 c26
-56 152 -339 161 -360 8 -22 6 -23 -37 -23 -44 0 -45 1 -64 45 l-19 45 -99 0
-99 0 -13 -41 c-16 -47 -24 -52 -73 -47 l-36 3 80 180 c45 99 85 190 90 203 7
18 16 22 52 22 38 0 46 -4 57 -27z m555 9 c63 -22 95 -65 95 -130 0 -41 -30
-112 -48 -112 -4 0 -13 -4 -21 -9 -11 -7 -5 -22 32 -75 l46 -66 -47 0 c-47 0
-49 1 -88 58 -37 54 -41 57 -87 60 l-47 3 0 -60 0 -61 -45 0 -45 0 0 205 0
205 103 0 c69 -1 118 -6 152 -18z m345 -187 l0 -205 -40 0 -40 0 0 205 0 205
40 0 40 0 0 -205z m497 0 l91 -205 -46 0 c-46 0 -47 1 -65 45 l-19 45 -98 0
-98 0 -18 -45 c-16 -44 -18 -45 -60 -45 -24 0 -44 2 -44 5 0 5 157 361 171
388 7 12 22 17 52 17 l42 0 92 -205z m766 176 c63 -30 99 -84 105 -155 8 -93
-26 -159 -101 -198 -35 -18 -64 -23 -169 -26 l-128 -4 0 207 0 207 123 -4
c102 -3 130 -8 170 -27z m577 -6 l0 -35 -110 0 -110 0 0 -50 0 -50 95 0 95 0
0 -35 0 -35 -95 0 -95 0 0 -50 0 -50 110 0 110 0 0 -35 0 -35 -155 0 -155 0 0
205 0 205 155 0 155 0 0 -35z m-9000 -95 c25 -13 43 -47 34 -62 -5 -7 -15 -2
-30 17 -14 18 -28 26 -38 22 -25 -10 -30 -36 -12 -56 13 -15 15 -31 10 -87 -3
-38 -1 -80 4 -94 7 -19 6 -32 -6 -51 -29 -51 18 -85 51 -36 20 30 35 12 16
-21 -21 -39 -81 -43 -105 -8 -14 22 -14 31 -4 56 8 19 10 49 5 87 -4 35 -2 70
4 87 9 22 8 35 -4 59 -19 39 -19 56 2 79 18 20 45 23 73 8z m685 -37 c12 -11
15 -25 10 -47 -13 -66 -11 -230 3 -254 29 -45 -21 -95 -76 -78 -24 8 -55 53
-47 67 4 6 17 -1 31 -16 26 -29 41 -29 58 -1 9 13 7 20 -6 30 -21 15 -22 34
-7 85 9 30 8 44 -5 74 -14 36 -13 67 4 67 14 0 21 32 9 46 -19 23 -49 16 -59
-12 -10 -26 -30 -25 -30 2 0 44 82 71 115 37z m895 -4 c0 -5 -43 -55 -95 -110
-52 -54 -95 -103 -95 -109 0 -26 31 -4 94 66 37 41 70 73 73 71 9 -10 -22 -57
-61 -89 -22 -19 -54 -55 -71 -79 -37 -56 -66 -89 -77 -89 -12 0 0 85 18 129 8
19 58 76 112 127 53 51 98 93 100 94 1 0 2 -5 2 -11z m117 -78 c-15 -22 -59
-64 -99 -94 -115 -86 -211 -197 -169 -197 5 0 35 27 67 61 33 33 87 80 120
104 34 25 76 66 93 91 25 39 31 43 31 25 0 -44 -33 -93 -111 -164 -83 -76
-190 -147 -221 -147 -27 0 -89 -34 -117 -64 -14 -14 -30 -26 -38 -26 -30 0 -9
33 55 84 38 30 102 91 143 136 68 76 259 242 268 234 2 -2 -8 -21 -22 -43z
m-2689 12 c22 -30 52 -26 52 7 0 26 15 26 34 -2 11 -15 16 -46 16 -96 0 -64 2
-73 17 -70 10 2 21 18 26 38 12 48 20 54 48 31 20 -16 24 -29 27 -96 3 -56 8
-78 19 -82 9 -4 20 2 26 12 8 15 13 8 29 -44 14 -44 31 -75 63 -108 25 -26 45
-50 45 -55 0 -13 -16 -9 -30 6 -23 29 -107 49 -176 41 -62 -6 -64 -6 -64 16 0
21 -3 21 -54 16 -44 -4 -63 -1 -98 16 -64 33 -62 53 8 63 63 10 82 30 37 39
-89 20 -163 59 -163 87 0 4 25 8 55 8 30 0 55 4 55 9 0 6 -22 22 -50 38 -56
32 -59 46 -9 51 40 4 49 15 49 65 0 44 11 47 38 10z m2762 -113 c0 -19 -88
-116 -143 -158 -31 -24 -57 -50 -57 -58 0 -20 7 -18 59 21 49 35 119 107 158
160 21 28 22 28 23 8 0 -38 -150 -192 -209 -215 -14 -5 -64 -12 -111 -14 l-85
-5 72 35 c94 45 185 115 237 183 39 51 56 64 56 43z m-1460 -215 c124 0 231 2
239 5 27 10 22 -20 -6 -31 -41 -15 -470 -8 -500 9 -35 20 -29 36 10 26 17 -5
133 -9 257 -9z m724 -50 c-21 -6 -48 -17 -59 -24 -11 -7 -49 -22 -84 -34 -74
-25 -99 -54 -36 -43 20 4 56 16 79 26 44 20 138 50 155 50 6 0 11 -4 11 -9 0
-5 -24 -15 -52 -21 -70 -17 -155 -49 -258 -99 -56 -27 -93 -38 -108 -35 -31 9
-28 18 11 32 17 7 61 37 96 67 35 30 78 57 95 61 17 3 45 13 61 22 38 20 85
30 109 24 15 -4 9 -8 -20 -17z m-1240 -61 c9 -3 28 -28 43 -55 27 -50 58 -65
69 -34 9 22 28 19 62 -10 35 -29 53 -31 112 -10 45 16 130 20 130 7 0 -16 -25
-32 -49 -32 -28 0 -125 -42 -135 -58 -3 -6 -20 -13 -36 -17 -17 -4 -50 -27
-76 -55 -45 -47 -98 -79 -111 -66 -4 3 1 22 10 41 21 43 5 56 -31 26 -37 -30
-102 -61 -129 -61 -33 0 -38 18 -14 51 22 30 27 49 12 49 -5 0 -34 -12 -64
-26 -45 -20 -60 -23 -77 -14 -25 13 -25 15 0 40 40 40 28 48 -77 46 -91 -1
-98 0 -98 18 0 15 15 26 55 42 49 20 55 25 52 48 -2 19 2 26 15 28 38 3 68 -4
94 -22 32 -24 41 -17 33 27 -5 26 -3 33 9 33 31 0 65 -19 101 -56 26 -27 40
-34 47 -27 8 8 8 17 0 31 -21 39 -13 53 31 61 3 0 13 -2 22 -5z m1316 -28
c-25 -6 -81 -31 -123 -54 -43 -24 -112 -52 -154 -63 -86 -22 -88 -22 -80 -44
13 -33 126 -5 230 57 68 41 183 88 215 88 28 0 -47 -56 -133 -100 -117 -59
-234 -102 -280 -102 -29 -1 -67 13 -140 50 -63 33 -120 54 -155 59 -38 6 -55
13 -55 23 0 23 69 16 157 -14 41 -14 84 -26 95 -26 11 0 58 18 105 39 47 22
123 51 169 65 107 31 117 34 159 34 34 1 34 0 -10 -12z m3958 -25 c54 -28 59
-39 30 -68 l-25 -25 -34 21 c-22 13 -51 21 -82 21 -91 0 -149 -89 -117 -184
24 -75 133 -107 198 -59 l29 21 29 -23 c26 -20 27 -24 14 -40 -49 -59 -175
-72 -261 -27 -92 48 -134 164 -94 260 49 115 195 163 313 103z m1039 -7 c24
-14 43 -28 43 -33 0 -4 -11 -18 -24 -30 l-24 -22 -33 20 c-41 25 -110 27 -149
5 -92 -55 -76 -209 25 -242 47 -15 93 -9 127 17 23 19 24 19 53 -6 l29 -26
-27 -23 c-87 -75 -260 -49 -324 48 -35 51 -42 131 -18 193 20 53 81 109 133
124 55 15 140 4 189 -25z m739 21 c89 -26 147 -102 148 -195 1 -237 -355 -294
-430 -68 -38 114 21 227 139 264 56 17 84 17 143 -1z m3711 -21 c24 -14 43
-29 43 -34 0 -5 -12 -18 -26 -29 -25 -20 -26 -20 -57 0 -39 23 -109 25 -147 3
-88 -53 -78 -201 17 -241 44 -18 96 -12 134 16 l26 20 28 -29 27 -28 -43 -29
c-37 -25 -52 -28 -118 -28 -58 0 -86 5 -116 21 -115 60 -142 224 -53 320 71
77 191 93 285 38z m-7077 -9 l0 -35 -105 0 -105 0 0 -50 0 -50 95 0 95 0 0
-30 0 -30 -96 0 -95 0 3 -53 3 -52 108 -3 107 -3 0 -29 0 -30 -155 0 -155 0 0
200 0 200 150 0 150 0 0 -35z m441 24 c85 -29 138 -102 139 -191 0 -58 -13
-94 -48 -132 -50 -53 -94 -66 -229 -66 l-123 0 0 200 0 200 114 0 c62 0 128
-5 147 -11z m389 -128 c0 -124 2 -141 20 -164 43 -55 136 -40 159 24 6 18 11
88 11 155 l0 124 40 0 40 0 0 -149 c0 -137 -2 -151 -23 -182 -29 -44 -98 -79
-157 -79 -55 0 -125 33 -154 73 -19 25 -21 46 -24 183 l-3 154 45 0 46 0 0
-139z m1263 -55 c48 -107 87 -197 87 -200 0 -3 -20 -6 -44 -6 -42 0 -45 2 -60
40 l-16 40 -100 0 -100 0 -16 -40 c-16 -38 -18 -40 -61 -40 -25 0 -43 4 -41 9
2 5 41 95 88 200 l85 191 46 0 46 0 86 -194z m817 -6 l0 -200 -45 0 -45 0 0
200 0 200 45 0 45 0 0 -200z m942 74 l103 -125 3 125 3 126 44 0 45 0 0 -200
0 -200 -42 1 c-43 0 -44 1 -138 119 -52 65 -98 119 -102 119 -5 1 -8 -53 -8
-119 l0 -120 -45 0 -45 0 0 200 0 200 39 0 c38 0 43 -4 143 -126z m896 105
c33 -16 49 -32 63 -63 23 -52 23 -71 -1 -124 -26 -56 -78 -81 -172 -82 l-68 0
0 -55 0 -55 -45 0 -45 0 0 200 0 200 112 0 c94 0 119 -3 156 -21z m314 -114
c3 -116 6 -138 24 -162 29 -39 84 -52 119 -29 43 29 55 72 55 206 l0 120 41 0
40 0 -3 -154 c-3 -177 -10 -193 -88 -234 -85 -43 -198 -17 -247 57 -21 31 -23
45 -23 182 l0 149 39 0 39 0 4 -135z m735 124 c77 -29 99 -106 46 -161 -15
-15 -21 -28 -14 -28 6 0 23 -11 36 -25 19 -18 25 -35 25 -65 0 -93 -36 -110
-230 -110 l-140 0 0 200 0 200 124 0 c69 0 137 -5 153 -11z m343 -154 l0 -165
105 0 105 0 0 -35 0 -35 -150 0 -150 0 0 200 0 200 45 0 45 0 0 -165z m440
-35 l0 -200 -45 0 -45 0 0 200 0 200 45 0 45 0 0 -200z m990 9 c47 -106 87
-196 88 -200 2 -5 -17 -9 -42 -9 -44 0 -47 1 -62 40 l-16 40 -100 0 -100 0
-15 -40 c-15 -38 -18 -40 -61 -40 -38 0 -43 2 -37 18 3 9 43 99 87 200 l81
182 46 0 46 0 85 -191z m-9880 63 c0 -4 -55 -30 -122 -58 -67 -27 -124 -56
-126 -63 -8 -23 53 -6 154 43 89 43 154 64 154 51 0 -3 -39 -24 -86 -47 -187
-87 -296 -108 -361 -68 -39 23 -41 29 -10 23 35 -7 141 24 247 72 84 38 114
49 143 54 4 0 7 -3 7 -7z"/>
<path d="M1756 3952 c-4 -6 -2 -60 4 -119 5 -59 10 -112 10 -117 0 -13 61 2
82 21 43 38 40 149 -6 192 -26 24 -81 38 -90 23z"/>
<path d="M597 3392 c-31 -35 -16 -92 40 -144 81 -78 171 -61 149 28 -9 34 -75
104 -113 121 -43 17 -57 17 -76 -5z"/>
<path d="M428 3180 c-10 -6 -22 -19 -28 -30 -9 -16 2 -28 87 -90 90 -65 99
-69 111 -53 35 48 21 107 -35 150 -37 28 -107 40 -135 23z"/>
<path d="M1197 2950 c-14 -11 -39 -20 -56 -20 -58 0 -80 -67 -38 -116 28 -32
47 -25 47 17 0 44 39 79 88 79 52 0 72 22 40 44 -30 21 -50 20 -81 -4z"/>
<path d="M3687 2526 c-67 -24 -96 -61 -76 -98 17 -33 28 -38 84 -38 58 0 125
28 149 61 21 31 20 45 -4 69 -24 24 -94 26 -153 6z"/>
<path d="M223 1344 c-3 -8 4 -25 17 -39 l23 -24 -26 2 c-36 3 -29 -16 11 -30
42 -14 84 -52 80 -73 -2 -10 -15 -15 -38 -15 -51 0 -48 -17 5 -30 43 -11 85
-39 85 -56 0 -5 -12 -15 -27 -23 -29 -15 -25 -19 27 -29 14 -2 34 -8 44 -12
17 -7 18 -5 12 18 -4 17 -1 38 9 56 l15 30 -33 3 c-41 4 -45 31 -17 112 22 64
25 86 11 86 -4 0 -17 -23 -28 -52 -11 -29 -25 -54 -31 -56 -6 -2 -21 11 -32
30 -16 26 -19 43 -15 76 6 41 -9 60 -21 27 -7 -16 -34 -21 -34 -6 0 17 -31 21
-37 5z"/>
<path d="M6360 995 l0 -75 65 0 c73 0 105 20 105 66 0 56 -41 84 -126 84 l-44
0 0 -75z"/>
<path d="M8300 996 l0 -76 65 0 c75 0 105 20 105 69 0 51 -27 72 -103 78 l-67
6 0 -77z"/>
<path d="M9865 1058 c-3 -8 -4 -68 -3 -134 l3 -119 50 -3 c71 -4 124 16 152
57 42 63 24 155 -37 186 -45 23 -158 32 -165 13z"/>
<path d="M636 828 c-19 -38 -19 -38 -3 -38 18 0 53 -39 62 -67 6 -21 3 -23
-34 -23 -36 0 -61 -14 -48 -26 3 -3 33 -9 68 -14 41 -6 68 -15 76 -27 23 -30
11 -40 -69 -57 -16 -4 -28 -11 -28 -16 0 -17 45 -22 101 -11 51 9 55 9 74 -14
24 -29 82 -35 91 -10 8 20 -13 45 -37 45 -29 0 -49 39 -49 98 0 38 -4 53 -12
50 -7 -3 -15 -15 -16 -29 -6 -39 -16 -41 -47 -9 -21 22 -31 44 -35 78 -4 37
-9 46 -22 44 -11 -2 -23 9 -33 28 -8 16 -17 30 -20 30 -2 0 -11 -14 -19 -32z"/>
<path d="M1280 392 c0 -4 7 -18 16 -30 15 -21 14 -22 -14 -22 -16 0 -50 11
-76 25 -57 30 -69 31 -61 5 5 -17 0 -20 -45 -26 -81 -11 -54 -28 48 -30 51 0
95 -4 99 -8 3 -3 -1 -14 -10 -24 -19 -21 -22 -42 -7 -42 5 0 24 9 42 20 34 20
108 28 108 10 0 -5 -5 -21 -12 -35 -18 -40 -2 -41 42 -1 30 27 49 36 76 36 35
0 36 -1 32 -30 -3 -17 -1 -33 4 -36 12 -8 48 25 48 43 0 7 11 18 25 23 14 5
25 17 25 28 0 28 -10 33 -34 17 -42 -30 -75 -15 -120 59 -21 33 -45 22 -27
-12 17 -32 13 -42 -14 -42 -34 0 -79 24 -103 55 -19 24 -42 34 -42 17z"/>
<path d="M8361 347 c-42 -21 -66 -64 -66 -117 0 -117 127 -178 215 -104 92 78
36 234 -85 234 -22 0 -51 -6 -64 -13z"/>
<path d="M5390 230 l0 -130 70 0 c83 0 114 12 141 57 17 27 20 45 17 84 -8 82
-60 119 -168 119 l-60 0 0 -130z"/>
<path d="M9700 286 l0 -76 59 0 c75 0 105 21 105 74 0 53 -22 69 -99 74 l-65
4 0 -76z"/>
<path d="M10747 363 c-4 -3 -7 -28 -7 -55 l0 -48 59 0 c33 0 72 4 86 10 22 8
26 15 23 42 -2 23 -11 36 -28 45 -26 13 -122 18 -133 6z"/>
<path d="M10740 145 l0 -57 85 3 c90 4 108 13 108 54 0 41 -18 50 -108 54
l-85 3 0 -57z"/>
<path d="M2037 3952 c-54 -60 -48 -211 10 -233 54 -20 93 35 93 134 0 50 -5
70 -21 91 -24 30 -59 34 -82 8z"/>
<path d="M162 1937 c-6 -7 -14 -36 -18 -65 -7 -52 -19 -63 -42 -40 -23 23 -25
-3 -4 -41 27 -47 28 -76 5 -91 -17 -9 -16 -12 9 -33 14 -12 28 -33 30 -47 4
-33 48 -42 48 -10 0 11 -7 23 -15 26 -13 5 -11 12 10 40 31 40 31 46 3 42 -19
-2 -24 2 -26 28 -3 26 3 36 28 54 32 23 31 35 -3 42 -17 3 -16 7 7 51 14 26
26 50 26 53 0 10 -48 3 -58 -9z"/>
</g>
</svg>
